#!OML:ASF \\Waltz\H\Terrain\Patient Classification 1\Animal2\Wednesday\Animal2.ASF
:FULLY-SPECIFIED
:DEGREES
2734
root 19.6 18.3115 -1.48865 4.9135 19.2455 -2.26214
lowerback 5.94964 -1.94626 2.17564
upperback -7.11205 -2.25989 1.0921
thorax -10.9987 -1.20274 0.301626
lowerneck 2.02116 3.79689 13.814
upperneck -6.71835 4.5275 -22.5536
head -1.34151 2.57264 -9.45156
rclavicle -1.4561e-014 2.48481e-015
rhumerus -44.1114 -32.6695 -23.2491
rradius 69.8682
rwrist 25.1985
rhand 31.3779 29.8702
rfingers 7.12502
rthumb 54.9413 11.6892
lclavicle -1.4561e-014 2.48481e-015
lhumerus -61.7099 24.9779 21.0958
lradius 58.7236
lwrist 10.7423
lhand 34.0197 39.321
lfingers 7.12502
lthumb 57.28 -304.329
rfemur -18.3385 8.60747 15.0346
rtibia 50.9338
rfoot -7.57466 -1.37046
rtoes 28.856
lfemur -9.30187 -6.55476 -13.9005
ltibia 21.0603
lfoot -9.63554 -5.8715
ltoes -45.5598
2735
root 19.5619 18.3921 -1.56252 5.0779 19.4635 -2.09543
lowerback 5.72481 -1.82925 2.45346
upperback -7.09298 -2.07941 1.07133
thorax -10.8511 -1.13857 0.087399
lowerneck 1.60811 3.97256 14.0872
upperneck -6.49016 4.77035 -22.8434
head -1.13979 2.66678 -9.57956
rclavicle 5.91384e-015 -5.36719e-015
rhumerus -43.3651 -32.3904 -23.4682
rradius 70.0761
rwrist 24.7711
rhand 32.0977 29.8558
rfingers 7.12502
rthumb 55.5824 12.1469
lclavicle 5.91384e-015 -5.36719e-015
lhumerus -61.8133 25.0205 21.0589
lradius 58.9737
lwrist 9.76262
lhand 36.9158 41.4511
lfingers 7.12502
lthumb 59.7931 -304.553
rfemur -17.4133 8.50474 15.25
rtibia 49.518
rfoot -6.76538 -0.701845
rtoes 29.5669
lfemur -9.56062 -6.78029 -13.9225
ltibia 20.4923
lfoot -8.04354 -6.49665
ltoes -45.4364
2736
root 19.5174 18.4763 -1.63541 5.25604 19.6343 -1.63846
lowerback 5.5424 -1.69627 2.32648
upperback -7.01434 -1.92096 1.0666
thorax -10.6431 -1.05145 0.120462
lowerneck 1.45072 4.16077 14.1466
upperneck -6.59134 5.00139 -23.0571
head -1.08481 2.78113 -9.65671
rclavicle -4.35835e-014 -1.74931e-014
rhumerus -42.5813 -32.0908 -23.6217
rradius 70.3306
rwrist 24.0694
rhand 32.1927 29.5779
rfingers 7.12502
rthumb 55.6667 11.9327
lclavicle -4.35835e-014 -1.74931e-014
lhumerus -61.9466 24.9143 21.2298
lradius 59.3827
lwrist 9.59338
lhand 38.4427 43.617
lfingers 7.12502
lthumb 61.0921 -303.803
rfemur -16.4134 8.53523 15.2177
rtibia 48.0386
rfoot -5.92265 -0.10772
rtoes 31.0627
lfemur -9.75403 -7.00161 -14.2349
ltibia 19.9531
lfoot -6.33872 -6.97968
ltoes -45.3258
2737
root 19.4663 18.5573 -1.71571 5.4217 19.8928 -1.44606
lowerback 5.26953 -1.59305 2.45948
upperback -6.92187 -1.77318 1.11596
thorax -10.3751 -0.986706 0.0657933
lowerneck 1.58982 4.35794 14.1751
upperneck -6.9001 5.24519 -23.1719
head -1.14152 2.92241 -9.70716
rclavicle -2.23633e-016 -5.36719e-015
rhumerus -41.8217 -31.7821 -23.8246
rradius 70.4488
rwrist 23.2627
rhand 31.8817 28.9742
rfingers 7.12502
rthumb 55.3902 11.1216
lclavicle -2.23633e-016 -5.36719e-015
lhumerus -61.9594 24.8636 21.4126
lradius 59.7714
lwrist 10.0888
lhand 38.226 45.4956
lfingers 7.12502
lthumb 60.909 -301.715
rfemur -15.5374 8.50446 15.4887
rtibia 46.5334
rfoot -4.93054 0.22924
rtoes 32.9759
lfemur -10.0861 -7.09078 -14.2454
ltibia 19.3979
lfoot -4.72624 -7.46268
ltoes -45.0754
2738
root 19.412 18.6366 -1.79643 5.57122 20.1981 -1.35523
lowerback 5.01797 -1.54287 2.68675
upperback -6.86735 -1.6858 1.18077
thorax -10.1675 -0.9574 -0.0136085
lowerneck 1.76302 4.67242 14.1909
upperneck -7.15274 5.67141 -23.0624
head -1.16207 3.14834 -9.67125
rclavicle 3.06128e-014 1.03368e-014
rhumerus -40.9487 -31.2942 -24.2263
rradius 70.3926
rwrist 22.7029
rhand 30.6647 27.8791
rfingers 7.12502
rthumb 54.3035 9.24833
lclavicle 3.06128e-014 1.03368e-014
lhumerus -62.0381 24.9107 21.1229
lradius 59.9674
lwrist 10.3034
lhand 38.3671 47.0705
lfingers 7.12502
lthumb 61.0283 -300.276
rfemur -14.7229 8.3152 15.8736
rtibia 45.0472
rfoot -3.99309 0.581094
rtoes 34.3717
lfemur -10.4967 -7.22018 -14.1455
ltibia 18.8814
lfoot -2.75135 -8.12575
ltoes -43.4653
2739
root 19.3608 18.7103 -1.87646 5.71318 20.4702 -1.13266
lowerback 4.94109 -1.43002 2.80904
upperback -6.85637 -1.51866 1.23597
thorax -10.1076 -0.882241 -0.0488278
lowerneck 1.5923 5.00034 14.1685
upperneck -7.06269 6.13152 -22.9765
head -1.021 3.36443 -9.61351
rclavicle -4.29375e-014 -2.62396e-014
rhumerus -40.0311 -30.8164 -24.377
rradius 70.0886
rwrist 22.2515
rhand 28.7448 26.7642
rfingers 7.12502
rthumb 52.575 7.00646
lclavicle -4.29375e-014 -2.62396e-014
lhumerus -62.0292 24.7677 20.9236
lradius 60.121
lwrist 10.4216
lhand 38.8857 48.1901
lfingers 7.12502
lthumb 61.4652 -299.666
rfemur -13.9129 8.14948 16.0968
rtibia 43.5863
rfoot -3.08058 1.04916
rtoes 35.9839
lfemur -10.8909 -7.41975 -14.2052
ltibia 18.5554
lfoot -1.01833 -8.60073
ltoes -43.9363
2740
root 19.3086 18.7808 -1.96136 5.93266 20.8118 -0.945242
lowerback 4.82561 -1.27117 3.03225
upperback -6.869 -1.28074 1.28761
thorax -10.052 -0.780284 -0.153909
lowerneck 1.32421 5.24891 14.2229
upperneck -6.96387 6.46979 -23.1045
head -0.871848 3.51885 -9.64271
rclavicle 2.127e-014 -1.11319e-014
rhumerus -39.3337 -30.6576 -24.077
rradius 69.6616
rwrist 21.5305
rhand 26.7552 26.5426
rfingers 7.12502
rthumb 50.7675 5.73241
lclavicle 2.127e-014 -1.11319e-014
lhumerus -61.8373 24.5969 20.9071
lradius 60.4377
lwrist 10.5346
lhand 39.0639 48.6672
lfingers 7.12502
lthumb 61.6147 -299.367
rfemur -13.304 7.94004 16.3294
rtibia 42.1557
rfoot -2.1008 1.57692
rtoes 37.4804
lfemur -11.4822 -7.55919 -14.1856
ltibia 18.3371
lfoot 0.998537 -8.94227
ltoes -41.8141
2741
root 19.252 18.8497 -2.04614 6.20158 21.2131 -0.952048
lowerback 4.56097 -1.18755 3.48729
upperback -6.92176 -1.12914 1.32749
thorax -9.96064 -0.737804 -0.390987
lowerneck 1.40956 5.4636 14.4005
upperneck -7.14938 6.75948 -23.1547
head -0.871908 3.67086 -9.68879
rclavicle 2.01766e-014 5.56597e-015
rhumerus -38.7654 -30.6554 -23.8992
rradius 69.3264
rwrist 20.8644
rhand 24.8925 26.4593
rfingers 7.12502
rthumb 49.0624 4.75784
lclavicle 2.01766e-014 5.56597e-015
lhumerus -61.682 24.4964 20.5122
lradius 60.8659
lwrist 10.6447
lhand 38.2429 48.7085
lfingers 7.12502
lthumb 60.9233 -298.518
rfemur -12.8897 7.66182 16.7553
rtibia 40.7928
rfoot -1.21888 2.15013
rtoes 38.3263
lfemur -12.2843 -7.57794 -13.9334
ltibia 18.1177
lfoot 3.03361 -8.98945
ltoes -37.5594
2742
root 19.1883 18.9135 -2.13135 6.34916 21.6496 -1.09992
lowerback 4.36273 -1.15738 4.00176
upperback -6.89383 -1.04237 1.41541
thorax -9.82157 -0.727454 -0.600798
lowerneck 1.42741 5.73075 14.42
upperneck -7.35137 7.11424 -22.9174
head -0.872551 3.84731 -9.60154
rclavicle -1.2275e-014 1.59028e-014
rhumerus -38.0219 -30.7179 -24.0871
rradius 69.0574
rwrist 20.1704
rhand 22.8853 25.4026
rfingers 7.12502
rthumb 47.2129 2.8307
lclavicle -1.2275e-014 1.59028e-014
lhumerus -61.4822 24.6396 19.8747
lradius 61.2298
lwrist 10.5841
lhand 37.0311 48.3988
lfingers 7.12502
lthumb 59.8919 -297.708
rfemur -12.4868 7.5217 17.3667
rtibia 39.539
rfoot -0.697101 2.65169
rtoes 38.8023
lfemur -13.0449 -7.73346 -13.5157
ltibia 17.9909
lfoot 4.19058 -9.35455
ltoes -39.0286
2743
root 19.1207 18.9688 -2.22094 6.59576 22.0518 -0.885151
lowerback 4.23468 -1.05001 4.05117
upperback -6.75773 -0.89655 1.50921
thorax -9.58701 -0.651482 -0.553031
lowerneck 0.929683 6.0493 14.1964
upperneck -7.29122 7.51906 -22.6432
head -0.713864 4.01949 -9.4273
rclavicle -3.26504e-014 7.95139e-015
rhumerus -37.2472 -30.9635 -24.0873
rradius 68.6785
rwrist 19.5344
rhand 20.0467 24.1525
rfingers 7.12502
rthumb 44.5786 0.488859
lclavicle -3.26504e-014 7.95139e-015
lhumerus -61.0367 25.1126 19.3941
lradius 61.3796
lwrist 10.0713
lhand 36.8918 47.5339
lfingers 7.12502
lthumb 59.7725 -298.449
rfemur -12.1788 7.55252 17.5902
rtibia 38.4427
rfoot -0.506629 3.21062
rtoes 39.7978
lfemur -13.7957 -8.02152 -13.4524
ltibia 17.9954
lfoot 5.17468 -9.55023
ltoes -40.5236
2744
root 19.0538 19.0099 -2.3119 7.06877 22.3509 -0.343219
lowerback 4.04696 -0.871526 3.80475
upperback -6.7127 -0.68933 1.50419
thorax -9.40995 -0.530299 -0.451288
lowerneck 0.765471 6.2359 14.2528
upperneck -7.41431 7.74996 -22.6768
head -0.670526 4.12995 -9.43432
rclavicle 6.07287e-014 7.15625e-015
rhumerus -36.6709 -31.305 -23.793
rradius 68.0775
rwrist 19.1191
rhand 16.2025 23.5815
rfingers 7.12502
rthumb 40.9824 -1.34052
lclavicle 6.07287e-014 7.15625e-015
lhumerus -60.4752 25.4587 18.9188
lradius 61.3618
lwrist 9.37607
lhand 36.673 46.2714
lfingers 7.12502
lthumb 59.5848 -299.52
rfemur -12.0982 7.64311 17.4151
rtibia 37.4856
rfoot -0.279504 3.9015
rtoes 40.414
lfemur -14.6859 -8.14902 -13.7615
ltibia 18.1573
lfoot 5.43862 -9.39425
ltoes -41.7746
2745
root 18.9857 19.0301 -2.40381 7.53151 22.7318 0.0572401
lowerback 3.81364 -0.770678 3.74398
upperback -6.76427 -0.569028 1.48639
thorax -9.322 -0.466955 -0.453671
lowerneck 1.30417 6.32233 14.5442
upperneck -7.98472 7.85537 -22.7898
head -0.883651 4.22318 -9.55921
rclavicle 3.88127e-014 7.95139e-015
rhumerus -36.248 -31.574 -23.5654
rradius 67.5062
rwrist 18.4602
rhand 12.1235 23.4979
rfingers 7.12502
rthumb 37.1376 -2.53085
lclavicle 3.88127e-014 7.95139e-015
lhumerus -59.8989 25.3506 18.4451
lradius 61.4508
lwrist 9.45193
lhand 34.7182 45.2741
lfingers 7.12502
lthumb 57.8914 -298.907
rfemur -12.1599 7.61083 17.3799
rtibia 36.602
rfoot -0.0421067 4.57545
rtoes 39.0839
lfemur -15.7598 -8.16916 -13.963
ltibia 18.6537
lfoot 5.37014 -9.49041
ltoes -42.4688
2746
root 18.9191 19.0374 -2.49693 7.88775 23.2131 0.13054
lowerback 3.58626 -0.73406 4.06836
upperback -6.80966 -0.497707 1.53056
thorax -9.24045 -0.451779 -0.598711
lowerneck 1.62959 6.44582 14.736
upperneck -8.31934 8.02794 -22.7105
head -0.996029 4.32787 -9.58259
rclavicle -2.78299e-014 1.27222e-014
rhumerus -35.8986 -31.666 -23.5303
rradius 67.1594
rwrist 17.6966
rhand 8.26834 22.8955
rfingers 7.12502
rthumb 33.4821 -4.0017
lclavicle -2.78299e-014 1.27222e-014
lhumerus -59.2325 24.8153 18.2724
lradius 61.8707
lwrist 10.617
lhand 31.0046 44.5572
lfingers 7.12502
lthumb 54.6078 -297.024
rfemur -12.2848 7.57896 17.6731
rtibia 35.7205
rfoot 0.0629371 5.21262
rtoes 36.4551
lfemur -17.0599 -8.22745 -13.7946
ltibia 19.6159
lfoot 5.56113 -9.25852
ltoes -40.8635
2747
root 18.8472 19.0401 -2.58989 8.08816 23.6144 -0.00623738
lowerback 3.50372 -0.643149 4.49455
upperback -6.82713 -0.334584 1.63027
thorax -9.21119 -0.396792 -0.750367
lowerneck 1.72736 6.55821 15.047
upperneck -8.42302 8.19773 -22.6929
head -0.995338 4.41146 -9.63116
rclavicle -5.76972e-014 -3.97569e-015
rhumerus -35.5429 -31.6402 -23.6303
rradius 66.854
rwrist 17.2523
rhand 3.82198 21.6777
rfingers 7.12502
rthumb 29.2457 -6.0435
lclavicle -5.76972e-014 -3.97569e-015
lhumerus -58.5337 24.1956 18.2219
lradius 62.4048
lwrist 11.5113
lhand 27.8462 43.0252
lfingers 7.12502
lthumb 51.7606 -296.728
rfemur -12.3253 7.99182 18.1872
rtibia 34.7822
rfoot 0.182018 5.6337
rtoes 34.4895
lfemur -18.373 -8.29775 -13.3419
ltibia 20.928
lfoot 5.11568 -8.46419
ltoes -39.2024
2748
root 18.7694 19.0342 -2.68519 8.21732 23.9965 -0.0720371
lowerback 3.56778 -0.537286 4.72481
upperback -6.81521 -0.158229 1.75285
thorax -9.23118 -0.321164 -0.768679
lowerneck 2.06684 6.69101 15.6014
upperneck -8.79332 8.39037 -22.993
head -1.07482 4.52879 -9.85056
rclavicle -1.51076e-014 -3.10104e-014
rhumerus -35.1969 -31.5874 -23.726
rradius 66.4642
rwrist 16.9608
rhand -1.12072 21.1131
rfingers 7.12502
rthumb 24.5165 -7.33751
lclavicle -1.51076e-014 -3.10104e-014
lhumerus -57.7975 23.7506 18.0067
lradius 62.6502
lwrist 11.6435
lhand 26.586 40.6634
lfingers 7.12502
lthumb 50.6132 -298.442
rfemur -12.2876 8.62094 18.6057
rtibia 33.7828
rfoot 0.496697 5.46882
rtoes 34.8514
lfemur -19.5865 -8.10194 -13.0221
ltibia 22.4635
lfoot 4.39899 -7.73491
ltoes -36.7782
